<?xml version="1.0" encoding="utf-8"?>
<!-- Generator: Adobe Illustrator 26.4.1, SVG Export Plug-In . SVG Version: 6.00 Build 0)  -->
<svg version="1.1"
	 id="svg14372" xmlns:svg="http://www.w3.org/2000/svg" xmlns:sodipodi="http://sodipodi.sourceforge.net/DTD/sodipodi-0.dtd" xmlns:inkscape="http://www.inkscape.org/namespaces/inkscape"
	 xmlns="http://www.w3.org/2000/svg" xmlns:xlink="http://www.w3.org/1999/xlink" x="0px" y="0px" viewBox="0 0 800 800"
	 style="enable-background:new 0 0 800 800;" xml:space="preserve">
<style type="text/css">
	.st0{clip-path:url(#SVGID_00000110463472075206438430000009968985658207102137_);}
	.st1{fill:#110F0D;}
</style>
<sodipodi:namedview  bordercolor="#000000" borderopacity="0.25" id="namedview14374" inkscape:current-layer="g14380" inkscape:cx="400" inkscape:cy="400.4779" inkscape:deskcolor="#d1d1d1" inkscape:pagecheckerboard="0" inkscape:pageopacity="0.0" inkscape:showpageshadow="2" inkscape:window-height="1017" inkscape:window-maximized="1" inkscape:window-width="1920" inkscape:window-x="-8" inkscape:window-y="-8" inkscape:zoom="1.04625" pagecolor="#ffffff" showgrid="false">
	<inkscape:page  height="800" id="page14378" width="800" x="0" y="0"></inkscape:page>
</sodipodi:namedview>
<g id="g14380" transform="matrix(1.3333333,0,0,-1.3333333,0,800)" inkscape:groupmode="layer" inkscape:label="Page 1">
	<g id="g14382">
		<g>
			<defs>
				<rect id="SVGID_1_" x="-100" y="-100" width="800" height="800"/>
			</defs>
			<clipPath id="SVGID_00000081615576588865842730000009714071705702033854_">
				<use xlink:href="#SVGID_1_"  style="overflow:visible;"/>
			</clipPath>
			<g id="g14384" style="clip-path:url(#SVGID_00000081615576588865842730000009714071705702033854_);">
				<g id="g14390" transform="translate(334.9932,99.6377)">
					<path id="path14392" class="st1" d="M0,0c6.2-7.3,4.1-12.4,3.2-13.7c-1-1.5-6.5-3.3-9.9,3.1c-2.6,4.9-3.4,11.7-7.9,13
						c-4.3,1.3-3.2,2.9-0.3,3.8C-11.7,7.2-5.2,6.1,0,0 M-3.5-19.1c-3.2-0.9-9.6,0.1-14.8,6.3c-6.1,7.3-4.1,12.4-3.2,13.8
						c1,1.5,6.5,3.3,9.9-3.2C-9-7.2-8.2-13.9-3.7-15.3C0.6-16.7-0.6-18.3-3.5-19.1 M-49.8,27.6c2-2.7,3.3-9.1-0.7-16.1
						c-4.7-8.3-10.2-8.2-11.8-7.8c-1.8,0.4-5.4,5-0.5,10.4c3.7,4.1,9.8,7.3,9.5,11.9C-53.6,30.5-51.6,29.9-49.8,27.6 M-66.2,9.7
						c0.2-4.5-1.7-4-3.5-1.6c-2,2.7-3.2,9.1,0.8,16.1c4.8,8.3,10.2,8.1,11.8,7.7c1.8-0.4,5.3-5,0.4-10.4
						C-60.4,17.5-66.4,14.4-66.2,9.7 M251.5,48.7c-5.9-7.6-11.3-6.6-12.8-6c-1.7,0.7-4.6,5.7,1,10.3c4.3,3.5,10.7,5.8,11.1,10.4
						c0.4,4.5,2.2,3.7,3.7,1.1C256.1,61.6,256.5,55.1,251.5,48.7 M235.8,49.3c-0.4-4.5-2.2-3.7-3.7-1.1c-1.6,2.9-1.9,9.5,3.1,15.8
						c5.9,7.5,11.3,6.5,12.8,5.9c1.7-0.7,4.5-5.7-1.1-10.3C242.6,56.1,236.2,53.9,235.8,49.3 M200.5,104.7c1.6-2.9,1.9-9.4-3-15.8
						c-5.9-7.6-11.3-6.6-12.8-6c-1.7,0.7-4.6,5.7,1,10.3c4.3,3.5,10.7,5.8,11.1,10.4C197.3,108.1,199.1,107.3,200.5,104.7
						 M178.1,88.3c-1.6,2.9-1.9,9.5,3.1,15.8c5.9,7.5,11.3,6.5,12.8,5.9c1.7-0.7,4.5-5.7-1.1-10.3c-4.3-3.5-10.7-5.7-11.2-10.3
						C181.3,84.9,179.5,85.7,178.1,88.3 M137.3,12c1.6-2.9,1.9-9.4-3-15.8c-5.9-7.6-11.3-6.6-12.8-6c-1.7,0.7-4.6,5.7,1,10.3
						c4.3,3.5,10.7,5.8,11.1,10.4C134,15.5,135.8,14.6,137.3,12 M118.5-3.3c-0.4-4.5-2.2-3.7-3.7-1.1c-1.6,2.9-1.9,9.5,3.1,15.8
						c5.9,7.5,11.3,6.5,12.8,5.9c1.7-0.7,4.6-5.7-1.1-10.3C125.4,3.6,118.9,1.4,118.5-3.3 M190.9,59c1.6-2.9,1.9-9.4-3-15.8
						c-5.9-7.6-11.3-6.6-12.8-6c-1.7,0.7-4.6,5.7,1,10.3c4.3,3.5,10.7,5.8,11.1,10.4C187.7,62.4,189.5,61.6,190.9,59 M172.2,43.7
						c-0.4-4.5-2.2-3.7-3.7-1.1c-1.6,2.9-1.9,9.5,3.1,15.8c5.9,7.5,11.3,6.5,12.8,5.9c1.7-0.7,4.6-5.7-1.1-10.3
						C179.1,50.5,172.6,48.3,172.2,43.7 M111.1,59.5c-3.8,2.5-2.2,3.7,0.8,3.7c3.3,0,9.2-2.9,12.4-10.3c3.8-8.8,0.3-13.1-0.9-14.1
						c-1.4-1.2-7.2-1.3-8.6,5.9C113.8,50.2,115,56.9,111.1,59.5 M115.4,35.7c-3.3,0-9.2,2.9-12.3,10.3c-3.7,8.8-0.3,13.1,1,14.1
						c1.4,1.2,7.2,1.2,8.5-5.9c1-5.5-0.2-12.2,3.7-14.8C120,36.9,118.4,35.7,115.4,35.7 M-205.2,24.9c1.3-3.1,1-9.6-4.5-15.5
						c-6.6-7-11.9-5.5-13.3-4.8c-1.6,0.8-4,6.1,2,10.2c4.6,3.1,11.2,4.7,12.1,9.3C-208.1,28.7-206.4,27.7-205.2,24.9 M-225.3,11.5
						c-0.9-4.5-2.6-3.4-3.7-0.7c-1.3,3.1-1,9.6,4.6,15.4c6.6,6.9,11.9,5.4,13.3,4.7c1.6-0.9,4-6.1-2-10.2
						C-217.8,17.6-224.4,16.1-225.3,11.5 M-155.1,37.3c1.6-2.9,2-9.4-2.9-15.8c-5.8-7.6-11.2-6.7-12.7-6.1
						c-1.7,0.7-4.6,5.7,0.9,10.3c4.2,3.6,10.7,5.9,11,10.5C-158.4,40.7-156.6,39.9-155.1,37.3 M-173.8,21.9
						c-0.4-4.5-2.2-3.7-3.6-1.1c-1.6,2.9-2,9.4,2.9,15.8c5.8,7.6,11.2,6.6,12.8,6c1.7-0.7,4.6-5.7-1-10.3
						C-166.9,28.7-173.4,26.5-173.8,21.9 M-263.6,53.9c5.9-7.6,3.6-12.6,2.6-13.9c-1.1-1.5-6.7-3-9.8,3.6c-2.4,5-2.9,11.8-7.3,13.4
						c-4.3,1.5-3,3.1-0.1,3.8C-275,61.6-268.6,60.3-263.6,53.9 M-267.9,35c-3.2-0.8-9.6,0.5-14.5,6.9c-5.8,7.6-3.5,12.6-2.5,13.9
						c1.1,1.5,6.7,3,9.7-3.6c2.3-5,2.8-11.8,7.2-13.4C-263.8,37.2-265.1,35.7-267.9,35 M-205.3,77.2c5.9-7.6,3.6-12.6,2.6-13.9
						c-1.1-1.5-6.7-3-9.8,3.6c-2.4,5-2.9,11.8-7.3,13.4c-4.3,1.5-3,3.1-0.1,3.8C-216.6,84.8-210.2,83.5-205.3,77.2 M-224.1,65.2
						c-5.8,7.6-3.5,12.6-2.5,13.9c1.1,1.5,6.7,3,9.7-3.6c2.3-5,2.8-11.8,7.2-13.4c4.3-1.5,3-3.1,0.1-3.8
						C-212.8,57.4-219.2,58.8-224.1,65.2 M-107.4,43.4c0.3-9.6-4.5-12.3-6.1-12.8c-1.8-0.6-7.2,1.5-5.8,8.6c1,5.5,4.6,11.3,2,15.1
						c-2.6,3.7-0.6,4.3,2.1,3.2C-112.1,56.3-107.6,51.5-107.4,43.4 M-119.9,33.8c2.5-3.8,0.6-4.3-2.1-3.1c-3.1,1.3-7.5,6.1-7.7,14.1
						c-0.2,9.6,4.6,12.2,6.1,12.7c1.8,0.5,7.1-1.5,5.7-8.6C-118.9,43.4-122.5,37.6-119.9,33.8 M-60.1,323.8c2.6,2.2,5.9,3.9,9.5,5.1
						c0.6,0.2,1.1,0.4,1.7,0.5c-1.5-1.6-2.7-3.3-3.7-5.2c-2.3-4.4-3.2-9.4-3.2-14.2c0-4.8,0.9-9.6,2.4-14.2c1.7-5.1,4.4-10,7.7-14.2
						c-0.3,0.1-0.5,0.2-0.8,0.3c-0.8,0.3-1.7,0.6-2.5,1c-0.8,0.4-1.6,0.7-2.5,1.2c-0.8,0.4-1.7,0.8-2.4,1.2
						c-2.9,1.6-5.5,3.6-7.6,5.9c-2.2,2.3-3.9,4.9-5.1,7.7c-1.2,2.8-1.8,5.8-1.8,8.8C-68.2,313.6-65.4,319.6-60.1,323.8 M-78.4,277.1
						c3.5-4.5,7.7-8.3,12.2-11.4c1.2-0.8,2.3-1.4,3.4-2.1c1.1-0.7,2.2-1.3,3.4-1.9c1.1-0.6,2.3-1.2,3.5-1.7c1.2-0.6,2.4-1.1,3.6-1.6
						c1.5-0.6,3.1-1.2,4.7-1.6c3.5-1.1,7.2-1.9,11-2.4c5.5-0.7,11.1-0.6,16.6,0.3c2.8,0.5,5.5,1.1,8.2,2c4.6,1.5,9.1,3.5,13.3,6.2
						c5.8,1,11.4,3,16.4,6c2.1,1.3,4.1,2.7,5.9,4.3c1.9,1.6,3.6,3.3,5.2,5.1c1.6,1.9,3,3.9,4.3,6c1.3,2.1,2.3,4.4,3.1,6.8
						c3,9.4,3.1,19.1,1.7,28.5c-0.8,4.7-2,9.3-3.6,13.8c-1.6,4.5-3.6,8.7-5.9,12.9c-4.6,8.2-10.4,15.7-17,22.3
						C5.3,375-2.1,380.8-9.6,386c-7.5,5.3-15.1,10.3-22.5,15.6c-7.4,5.3-14.5,10.9-20.7,17.4c-3.1,3.3-5.9,6.8-8.2,10.6
						c-2.3,3.8-4,8-4.9,12.4c-0.9,4.4-0.8,8.9,0,13.4c0.8,4.4,2.5,8.7,4.6,12.8c-2.3-3.9-4.3-8.1-5.4-12.6
						c-1.1-4.5-1.4-9.2-0.8-13.8c0.6-4.6,2.3-9.1,4.5-13.2c2.2-4.1,5-7.9,8-11.4c6.1-7,13.3-12.9,20.5-18.6
						c7.3-5.6,14.8-10.8,22.1-16.2c3.7-2.7,7.2-5.4,10.6-8.3c3.4-2.9,6.7-6,9.8-9.2c6.2-6.4,11.6-13.6,15.8-21.4
						c4.2-7.8,7.2-16.2,8.6-24.8c0.7-4.3,0.9-8.7,0.7-13c-0.1-2.2-0.4-4.3-0.7-6.4c-0.4-2.1-0.9-4.2-1.5-6.2
						c-2.7-7.8-8.7-14.6-16-19c-0.6-0.3-1.1-0.7-1.7-1c1,1.2,1.9,2.3,2.8,3.6c1.7,2.5,3.3,5.1,4.5,8l0.9,2.2l0.8,2.3l0.2,0.6
						l0.1,0.5l0.3,1c0.2,0.7,0.3,1.3,0.5,2c0.6,2.7,1.1,5.4,1.3,8.1c1.1,10.9-0.8,21.9-4.6,31.7c-3.8,9.8-9.5,18.3-15.9,25.8
						c-3.2,3.7-6.6,7.1-10.2,10.4c-3.5,3.2-7.2,6.3-11,9c-0.9,0.7-1.9,1.4-2.8,2.1c-0.9,0.7-1.9,1.4-2.8,2l-5.4,3.7
						c-3.6,2.4-7.1,4.9-10.6,7.4c-7,5-13.7,10.2-19.8,15.8c-3,2.8-6,5.8-8.5,8.9c-2.6,3.1-4.8,6.5-6.3,10.1
						c-0.8,1.8-1.4,3.7-1.7,5.6c-0.4,1.9-0.5,3.9-0.3,6c0.3,4.1,1.9,8.2,4.2,12c-3.5-2.8-6.5-6.5-8.3-11c-0.9-2.3-1.4-4.7-1.7-7.2
						c-0.2-2.5-0.1-5,0.3-7.4c0.8-4.9,2.5-9.6,4.7-13.9c2.2-4.3,4.7-8.3,7.5-12.1c5.6-7.6,11.9-14.3,18.4-20.6
						c3.3-3.1,6.6-6.2,10-9.2c1.7-1.5,3.4-3,5.1-4.4l2.4-2.1c0.8-0.7,1.6-1.4,2.3-2.1c6-5.6,11.7-11.5,16.3-17.8
						c4.7-6.3,8.4-12.9,10.7-19.7c2.3-6.8,3.2-13.7,2.4-20.3c-0.2-1.7-0.5-3.3-0.9-4.9c-0.1-0.4-0.2-0.8-0.3-1.2l-0.2-0.6l-0.1-0.3
						l-0.1-0.2l-0.3-0.9l-0.4-0.9c-0.5-1.2-1.2-2.3-2-3.5c-0.8-1.1-1.7-2.2-2.8-3.3c-4.2-4.2-10-7.2-16.2-8.5
						c-3.8-0.7-7.8-0.9-11.9-0.3c-5.7,4.8-10.2,11.1-12.8,18.2c-1.5,4.1-2.4,8.3-2.5,12.6c-0.1,4.3,0.6,8.6,2.4,12.4
						c1.6,3.5,4.3,6.4,7.6,8.3c0.6,0,1.1,0,1.7,0c3.5-0.1,7-1,9.7-3c2.8-2,4.9-5,5.6-8.5c0.4-1.8,0.4-3.6-0.1-5.4
						c-0.5-1.8-1.3-3.5-2.6-5c-1.3-1.5-3-2.7-4.9-3.5s-4.1-1.4-6.3-1.7c2.2-0.3,4.5-0.3,6.8,0.1c2.3,0.4,4.6,1.3,6.6,2.7
						c2,1.4,3.8,3.4,4.9,5.7c1.2,2.3,1.8,4.9,1.8,7.6c0,4.2-1.4,8.5-3.9,12c1.8-1,3.4-2.5,4.6-4.2c2.5-3.4,3.7-7.9,3.3-12.2
						c-0.2-2.2-0.8-4.3-1.9-6.2c-1-1.9-2.5-3.6-4.3-5c-3.6-2.7-8.2-3.9-12.7-4c4.5-0.2,9.3,0.6,13.3,3.2c2,1.3,3.6,3,4.9,5
						c1.3,2,2.1,4.3,2.4,6.7c0.7,4.7-0.3,9.7-3,13.8c-1.3,2-3.1,3.8-5.2,5.2c-1.7,1.1-3.7,1.8-5.7,2.2c-3.4,2.8-7.6,4.6-11.8,5.4
						c-5.2,1.1-10.4,0.9-15.4,0.1c-4.9-0.8-10-2.3-14.8-4.9c-4.8-2.6-9.2-6.4-12.5-11.1c-3.4-4.7-5.5-10.3-6.4-16.1
						c-0.9-5.8-0.4-11.7,1.2-17.3C-84.5,286.8-81.8,281.5-78.4,277.1 M-147.3,237.8c0,0,0,0.7,1.5,1.7c3.1-2,8.6-4.3,12.7-5.1
						c14.7,7.3,163.1-0.3,161.4,0c18.5,0,12.5,5,3,6.7c-8.8,1.6-85.9,15.6-161.1,4c4,0.9,9,1.8,15.1,2.7c22,3.2,51.1,5,82,5
						c30.9,0,59.9-1.8,81.7-5c31.9-4.7,32.3-10,32.3-10s-0.4-5.4-32.3-10c-21.8-3.2-50.8-5-81.7-5c-30.9,0-60.1,1.8-82,5
						C-146.9,232.4-147.3,237.7-147.3,237.8 M0.9,40c3.2-2.1,6.3-4.3,9.3-6.6c3.1-2.2,6-4.5,9.1-6.8c3-2.2,6-4.5,9.1-6.5
						c3.1-2.1,6.2-4,9.5-5.7c3.2-1.7,6.6-3.1,10.1-3.8c3.5-0.7,7.1-0.6,10.5,0.6c3.4,1.1,6.4,3.5,9.1,6.2c-2-3.2-4.7-6.2-8.3-8
						c-0.9-0.4-1.8-0.9-2.8-1.1L55,7.9c-0.5-0.1-1-0.2-1.5-0.3c-2-0.4-4-0.2-6-0.1c-1,0.1-2,0.3-3,0.5c-1,0.3-1.9,0.5-2.9,0.8
						c-1.9,0.6-3.7,1.4-5.5,2.2c-3.5,1.7-6.8,3.7-10,5.8C23,19,19.9,21.3,17,23.7c-2.9,2.4-5.9,4.8-8.7,7.3C2.5,35.9-3,41-9.1,45.5
						C-5.6,44-2.3,42,0.9,40 M-115.6,99.1c-5.8,2-11.7,3.7-17.7,4.9c-6,1.2-12.1,1.9-18.2,1.7c-3-0.1-6.1-0.4-9.1-1.1
						c-1.5-0.3-3-0.8-4.3-1.4c-1.4-0.6-2.7-1.4-3.7-2.7c0.8,1.4,2.1,2.4,3.4,3.2c1.4,0.8,2.8,1.4,4.3,1.9c3,0.9,6.1,1.4,9.2,1.7
						c6.3,0.5,12.5-0.1,18.7-1.3c3.1-0.6,6.1-1.4,9.1-2.3c3-0.9,5.9-2,8.8-3.1c5.8-2.4,11.3-5.2,16.5-8.5
						C-104.1,94.6-109.8,97-115.6,99.1 M-25.2,207.8c-1.3-0.3-2.6-0.5-3.9-0.8l-4-0.6l-7.9-1c-2.7-0.2-5.3-0.4-8-0.6
						c-1.3-0.1-2.7-0.2-4-0.3l-4-0.1c-2.7-0.1-5.3-0.1-8-0.1l-8,0.2c-1.3,0-2.7,0.1-4,0.2l-4,0.3c-10.6,0.8-21.2,2.2-31.7,4.3
						c-2.6,0.5-5.2,1.1-7.8,1.7c-2.6,0.6-5.2,1.3-7.7,1.9c-5.1,1.4-10.2,2.9-15.2,4.9c10.5-1.7,20.9-3.3,31.4-4.6
						c10.5-1.3,20.9-2.4,31.4-3.1c5.2-0.4,10.5-0.6,15.7-0.9c2.6-0.1,5.3-0.1,7.9-0.2l3.9-0.1c1.3,0,2.6,0,3.9,0c2.6,0,5.3,0,7.9,0
						l7.9,0.2l4,0.1c1.3,0.1,2.6,0.2,4,0.2c2.6,0.1,5.3,0.3,8,0.3C-20,208.9-22.6,208.3-25.2,207.8 M-24.8,197.7
						c-1.2-0.3-2.5-0.5-3.7-0.8l-3.7-0.6c-0.2,0-7.4-1-7.5-1c-2.5-0.2-5-0.4-7.6-0.6c-1.3-0.1-2.5-0.2-3.8-0.3
						c-0.1,0-3.7-0.1-3.8-0.1c-2.5-0.1-5.1-0.1-7.6-0.1c-0.2,0-7.4,0.2-7.6,0.2c-1.3,0-2.5,0.1-3.8,0.2c-0.1,0-3.7,0.3-3.8,0.3
						c-10.1,0.8-20.1,2.1-30,4.2c-2.5,0.5-4.9,1.1-7.4,1.6c-2.4,0.6-4.9,1.2-7.3,1.9c-4.9,1.4-9.7,2.9-14.4,4.8
						c10-1.7,19.8-3.2,29.8-4.5c9.9-1.3,19.8-2.3,29.8-3c5-0.4,9.9-0.6,14.9-0.9c2.5-0.1,5-0.1,7.5-0.2c0.1,0,3.7-0.1,3.7-0.1
						c1.2,0,2.5,0,3.7,0c2.5,0,5,0,7.5,0c0.2,0,7.3,0.2,7.5,0.2l3.8,0.1c1.2,0.1,2.5,0.2,3.8,0.2c2.5,0.1,5,0.2,7.6,0.3
						C-19.9,198.8-22.3,198.2-24.8,197.7 M-24.4,187.7c-1.2-0.3-2.3-0.5-3.5-0.8l-3.5-0.6c-0.3-0.1-6.8-1-7.1-1
						c-2.4-0.2-4.8-0.4-7.2-0.6c-1.2-0.1-2.4-0.2-3.6-0.3c-0.2,0-3.4-0.1-3.6-0.1c-2.4-0.1-4.8-0.1-7.2-0.1c-0.3,0-6.9,0.2-7.2,0.2
						c-1.2,0-2.4,0.1-3.6,0.2c-0.2,0-3.4,0.2-3.6,0.3c-9.6,0.7-19.1,2.1-28.4,4.1c-2.3,0.5-4.7,1-7,1.6c-2.3,0.6-4.6,1.2-6.9,1.9
						c-4.6,1.4-9.1,2.8-13.5,4.7c9.4-1.6,18.8-3.1,28.1-4.3c9.4-1.2,18.7-2.2,28.1-2.9c4.7-0.4,9.4-0.6,14.1-0.9
						c2.4-0.1,4.7-0.1,7.1-0.2c0.2,0,3.4-0.1,3.5-0.1c1.2,0,2.3,0,3.5,0c2.4,0,4.7,0,7.1,0c0.3,0,6.8,0.2,7.1,0.2l3.6,0
						c1.2,0.1,2.4,0.2,3.5,0.2c2.4,0.1,4.7,0.2,7.1,0.3C-19.7,188.7-22.1,188.2-24.4,187.7 M-24,177.6c-1.1-0.3-2.2-0.5-3.3-0.8
						l-3.3-0.6c-0.5-0.1-6.2-0.9-6.7-1c-2.2-0.2-4.5-0.4-6.7-0.6c-1.1-0.1-2.3-0.2-3.4-0.3c-0.2,0-3.1-0.1-3.4-0.1
						c-2.3-0.1-4.5-0.1-6.8-0.1c-0.5,0-6.3,0.1-6.8,0.2c-1.1,0-2.3,0.1-3.4,0.2c-0.2,0-3.1,0.2-3.4,0.2c-9,0.7-18,2-26.8,4
						c-2.2,0.5-4.4,1-6.6,1.6c-2.2,0.6-4.3,1.2-6.5,1.8c-4.3,1.3-8.6,2.8-12.7,4.6c8.9-1.5,17.7-2.9,26.5-4.1
						c8.8-1.2,17.6-2.1,26.5-2.8c4.4-0.4,8.8-0.6,13.3-0.8c2.2-0.1,4.4-0.1,6.6-0.2c0.2,0,3.1-0.1,3.3-0.1c1.1,0,2.2,0,3.3,0
						c2.2,0,4.4,0,6.7,0c0.5,0,6.2,0.2,6.7,0.2l3.4,0c1.1,0.1,2.2,0.2,3.3,0.2c2.2,0.1,4.5,0.2,6.7,0.3
						C-19.6,178.7-21.8,178.1-24,177.6 M-23.5,167.5c-1-0.3-2.1-0.5-3.1-0.8l-3.1-0.6c-0.6-0.2-5.7-0.9-6.3-1
						c-2.1-0.2-4.2-0.4-6.3-0.6c-1.1-0.1-2.1-0.2-3.2-0.3c-0.3,0-2.9-0.1-3.2-0.1c-2.1-0.1-4.3-0.1-6.4-0.1c-0.6,0-5.7,0.1-6.4,0.2
						c-1.1,0-2.1,0.1-3.2,0.2c-0.3,0-2.9,0.2-3.2,0.2c-8.5,0.7-16.9,1.9-25.1,3.9c-2.1,0.5-4.1,1-6.2,1.5c-2,0.6-4.1,1.1-6.1,1.8
						c-4,1.3-8,2.7-11.9,4.5c8.3-1.5,16.6-2.8,24.9-4c8.3-1.1,16.5-2,24.8-2.7c4.1-0.4,8.3-0.6,12.5-0.8c2.1-0.1,4.2-0.1,6.2-0.2
						c0.3,0,2.8-0.1,3.1-0.1c1,0,2.1,0,3.1,0c2.1,0,4.2,0,6.3,0c0.6,0,5.6,0.2,6.3,0.2l3.1,0c1,0.1,2.1,0.2,3.1,0.2
						c2.1,0.1,4.2,0.2,6.3,0.3C-19.4,168.6-21.5,168.1-23.5,167.5 M-23.1,157.5c-1-0.3-1.9-0.5-2.9-0.7l-2.9-0.6
						c-0.8-0.2-5.1-0.8-5.9-1c-2-0.2-4-0.4-5.9-0.6c-1-0.1-2-0.2-3-0.2c-0.4,0-2.6-0.1-3-0.1c-2-0.1-4-0.1-6-0.1
						c-0.8,0-5.2,0.1-6,0.1c-1,0-2,0.1-3,0.2c-0.4,0-2.6,0.2-3,0.2c-7.9,0.7-15.8,1.9-23.5,3.8c-1.9,0.5-3.8,1-5.7,1.5
						c-1.9,0.6-3.8,1.1-5.7,1.7c-3.8,1.3-7.4,2.7-11,4.4c7.8-1.4,15.5-2.7,23.2-3.8c7.7-1.1,15.4-2,23.2-2.6
						c3.9-0.4,7.8-0.6,11.6-0.8c1.9-0.1,3.9-0.1,5.8-0.2c0.4,0,2.5-0.1,2.9-0.1c1,0,1.9,0,2.9,0c1.9,0,3.9,0,5.8,0
						c0.8,0,5.1,0.2,5.8,0.2l2.9,0c1,0.1,1.9,0.2,2.9,0.2c2,0.1,3.9,0.2,5.9,0.3C-19.3,158.5-21.2,158-23.1,157.5 M-22.7,147.4
						c-0.9-0.3-1.8-0.5-2.7-0.7l-2.7-0.6c-0.9-0.2-4.5-0.8-5.5-1c-1.8-0.2-3.7-0.4-5.5-0.6c-0.9-0.1-1.8-0.2-2.8-0.2
						c-0.5,0-2.3-0.1-2.8-0.1c-1.9-0.1-3.7-0.1-5.6-0.1c-1,0-4.6,0.1-5.6,0.1c-0.9,0-1.9,0.1-2.8,0.2c-0.5,0-2.3,0.2-2.8,0.2
						c-7.4,0.6-14.7,1.8-21.9,3.7c-1.8,0.5-3.6,0.9-5.3,1.5c-1.8,0.5-3.5,1.1-5.3,1.7c-3.5,1.2-6.9,2.6-10.2,4.3
						c7.3-1.3,14.4-2.6,21.6-3.6c7.2-1.1,14.3-1.9,21.5-2.5c3.6-0.3,7.2-0.6,10.8-0.7c1.8-0.1,3.6-0.1,5.4-0.2
						c0.5,0,2.2-0.1,2.7-0.1c0.9,0,1.8,0,2.7,0c1.8,0,3.6,0,5.4,0c0.9,0,4.5,0.2,5.4,0.2l2.7,0c0.9,0.1,1.8,0.1,2.7,0.2
						c1.8,0.1,3.7,0.2,5.5,0.3C-19.2,148.4-20.9,147.9-22.7,147.4 M-22.3,137.3c-0.8-0.3-1.6-0.5-2.5-0.7l-2.5-0.6
						c-1.1-0.3-3.9-0.8-5-1c-1.7-0.2-3.4-0.4-5.1-0.6c-0.9-0.1-1.7-0.2-2.6-0.2c-0.6-0.1-2-0.1-2.6-0.2c-1.7-0.1-3.4-0.2-5.2-0.2
						c-1.1,0-4,0.1-5.2,0.1c-0.9,0-1.7,0.1-2.6,0.1c-0.6,0-2,0.2-2.6,0.2c-6.8,0.6-13.6,1.8-20.2,3.6c-1.6,0.5-3.3,0.9-4.9,1.4
						c-1.6,0.5-3.2,1.1-4.8,1.7c-3.2,1.2-6.3,2.6-9.3,4.2c6.7-1.3,13.3-2.5,20-3.5c6.6-1,13.2-1.8,19.9-2.4c3.3-0.3,6.7-0.5,10-0.7
						c1.7-0.1,3.3-0.1,5-0.2c0.5,0,2-0.1,2.5-0.1c0.8,0,1.6,0,2.4,0c1.7,0,3.3,0,5,0c1.1,0.1,3.9,0.1,5,0.2l2.5,0
						c0.8,0.1,1.7,0.1,2.5,0.2c1.7,0.1,3.4,0.2,5.1,0.2C-19,138.4-20.6,137.9-22.3,137.3 M-21.9,127.3c-0.7-0.3-1.5-0.5-2.3-0.7
						l-2.3-0.6c-1.2-0.3-3.4-0.7-4.6-1c-1.6-0.2-3.1-0.4-4.7-0.6c-0.8-0.1-1.6-0.2-2.4-0.2c-0.6-0.1-1.7-0.1-2.4-0.2
						c-1.6-0.1-3.2-0.2-4.8-0.2c-1.3,0-3.5,0-4.8,0.1c-0.8,0-1.6,0.1-2.4,0.1c-0.6,0-1.7,0.1-2.4,0.2c-6.3,0.6-12.5,1.7-18.6,3.5
						c-1.5,0.4-3,0.9-4.5,1.4c-1.5,0.5-3,1-4.4,1.6c-2.9,1.2-5.8,2.5-8.5,4.1c6.2-1.2,12.2-2.3,18.3-3.3c6.1-1,12.1-1.7,18.2-2.3
						c3.1-0.3,6.1-0.5,9.2-0.7c1.5-0.1,3.1-0.1,4.6-0.2c0.6,0,1.7,0,2.3-0.1c0.7,0,1.5,0,2.2,0c1.5,0,3.1,0,4.6,0
						c1.2,0.1,3.4,0.1,4.6,0.2l2.3,0c0.8,0.1,1.5,0.1,2.3,0.2c1.5,0.1,3.1,0.2,4.7,0.2C-18.9,128.3-20.4,127.8-21.9,127.3
						 M-21.4,117.2c-0.7-0.3-1.4-0.5-2-0.7l-2.1-0.6c-1.4-0.4-2.8-0.7-4.2-1c-1.4-0.2-2.9-0.4-4.3-0.6c-5.8-0.7-11.6-0.8-17.4-0.2
						c-5.8,0.6-11.5,1.7-17,3.4c-5.5,1.7-10.9,3.9-15.8,6.9c5.6-1.1,11.2-2.2,16.7-3.1c5.5-0.9,11-1.7,16.6-2.2
						c5.5-0.6,11.1-0.8,16.6-0.9c1.4,0,2.8,0,4.2,0c1.4,0.1,2.8,0.1,4.2,0.2l2.1,0c0.7,0.1,1.4,0.1,2.1,0.2c1.4,0.1,2.8,0.2,4.3,0.2
						C-18.7,118.2-20.1,117.7-21.4,117.2 M87.4,196.5c2.7,1.7,6,2.7,9.2,2.7c3.7,0,7.1-1.3,8.9-4.1c3.4-5.4-0.5-13.7-6.1-17.3
						c-5.9-3.8-13.4-2.6-16.7,2.5C79.5,185.5,81.6,192.8,87.4,196.5 M150,108.7c-1.9,2-3.9,3.4-5.8,4.5c-3.8,2.3-7.6,3.8-11.3,5.2
						c-7.5,2.7-15,4.5-22.5,6c-15,3.1-30,4.9-45,6.2c-7.4,0.6-14.7,1.1-22.1,1.5c10.2,8.3,19,18.3,26,29.5
						c3.1-2.1,13.5,7.3,35.1,2.8c1.5-0.3,3.2,0,4.4,1c12.2,9.4,18.3,29,11.1,40.3c-6.4,10-20.9,11.4-33.4,6.5c0.4,4,0.6,8,0.6,12
						c0,9.4,0,13.5-2.1,14.5c0.1-0.5,0.1-0.8,0.1-1.1c0-2.2,0-8.8-35.7-14c-22-3.2-51.2-5-82.3-5c-31.1,0-60.4,1.8-82.6,5
						c-24.9,3.6-32.5,7.9-34.9,10.9c-0.3-2.3-0.3-5.6-0.3-10.2c0-39.9,19.7-75.2,49.9-96.8c-4.5-0.5-9-1-13.5-1.6
						c-14.8-1.9-29.6-4.2-44.2-7.5c-7.3-1.6-14.5-3.6-21.5-6.1c-3.5-1.3-7-2.8-10.2-4.7c-1.6-1-3.1-2.1-4.4-3.4
						c-1.3-1.3-2.3-3.1-2.3-5c0,1.9,1,3.6,2.3,4.9c1.3,1.4,2.8,2.5,4.4,3.4c3.2,1.9,6.7,3.4,10.2,4.6c7,2.5,14.3,4.3,21.6,5.8
						c14.6,3,29.5,4.8,44.3,6.1c5.5,0.5,11,0.8,16.4,1.2c4.5-3,9.3-5.7,14.2-8.1c-3.1-0.6-6.1-1.2-9.2-1.9
						c-3.7-0.9-7.4-1.9-10.9-3.2c-1.8-0.7-3.5-1.4-5.1-2.4c-0.8-0.5-1.6-1.1-2.2-1.8c-0.7-0.7-1.2-1.6-1.2-2.5c0,1,0.5,1.8,1.2,2.5
						c0.7,0.7,1.4,1.2,2.2,1.7c1.6,1,3.4,1.7,5.2,2.3c3.6,1.3,7.3,2.1,11,2.9c3.5,0.7,7,1.2,10.5,1.7c15.2-7.1,32.3-11.1,50.2-11.1
						c15.7,0,30.7,3,44.4,8.6c2.5-0.3,5-0.7,7.5-1c7.4-1.1,14.7-2.3,21.7-4c3.5-0.8,7-1.8,10.1-3c0.5-0.2,1-0.4,1.4-0.6
						c-0.5-0.2-1-0.4-1.5-0.6c-3.1-1.1-6.5-2.1-10.1-2.9c-7-1.7-14.4-2.9-21.7-4c-7.4-1.1-14.8-2-22.3-2.7c-7.5-0.8-15-1.4-22.5-1.8
						c-15.1-0.9-30.2-1.2-45.3-0.1c-7.5,0.5-15.1,1.3-22.5,2.8c-3.7,0.8-7.4,1.6-11,2.9c-1.8,0.6-3.5,1.4-5.2,2.3
						c-0.8,0.5-1.6,1-2.2,1.7c-0.7,0.7-1.2,1.5-1.2,2.5c0-1,0.5-1.8,1.2-2.5c0.6-0.7,1.4-1.3,2.2-1.8c1.6-1,3.4-1.7,5.1-2.4
						c3.6-1.3,7.2-2.3,10.9-3.2c7.4-1.7,14.9-3,22.4-4.1c7.5-1.1,15.1-2,22.7-2.8c7.6-0.8,15.2-1.4,22.8-1.8
						c15.2-0.9,30.6-1.2,46-0.1c7.7,0.5,15.4,1.4,23.2,2.9c3.9,0.8,7.8,1.7,11.8,3.1c2,0.7,4.1,1.6,6.3,2.9c1.1,0.7,2.3,1.5,3.6,2.8
						c0.6,0.7,1.3,1.5,1.9,2.7c0.6,1.1,1,2.7,1,4.3c0,1.6-0.5,3.1-1,4.3c-0.6,1.2-1.3,2-1.9,2.7c-1.3,1.4-2.5,2.1-3.6,2.8
						c-2.2,1.3-4.3,2.1-6.3,2.9c-4,1.4-7.9,2.3-11.8,3.1c-2.6,0.5-5.2,0.9-7.7,1.3c9.2-0.9,18.3-1.8,27.4-3
						c14.7-1.9,29.3-4.1,43.5-7.4c7.1-1.6,14.1-3.5,20.7-5.9c3.2-1.2,6.4-2.6,9-4.2c1.3-0.8,2.4-1.6,3-2.3c0.2-0.2,0.3-0.3,0.4-0.5
						c0,0,0,0,0-0.1c0,0,0,0,0-0.1c-0.1-0.1-0.2-0.3-0.4-0.5c-0.6-0.7-1.8-1.6-3-2.3c-2.6-1.6-5.8-2.9-9-4.2
						c-6.6-2.4-13.6-4.3-20.7-5.9c-14.2-3.2-28.9-5.4-43.5-7.3c-14.7-1.8-29.5-3.3-44.3-4.4c-14.8-1.1-29.7-1.9-44.6-2.3
						C-34.8,72.1-45,72-55.3,72c-46,28.4-83.4,47.2-112,34.4c-6.5-2.9-10.4-18.7,19.4-16.1c17,1.5,39.6-1.8,76.7-18.1
						c-14.3,0.4-28.6,1-42.8,2.2c-14.9,1.3-29.7,3.1-44.3,6.1c-7.3,1.5-14.6,3.3-21.6,5.8c-3.5,1.3-7,2.7-10.2,4.6
						c-1.6,1-3.1,2.1-4.4,3.4c-1.3,1.3-2.3,3.1-2.3,4.9c0-1.9,1-3.6,2.3-5c1.3-1.4,2.8-2.5,4.4-3.4c3.2-1.9,6.7-3.4,10.2-4.7
						c7-2.6,14.3-4.5,21.5-6.1c14.6-3.3,29.4-5.6,44.2-7.5c14.8-1.9,29.7-3.4,44.7-4.4c2.8-0.2,5.5-0.4,8.3-0.6
						c3.2-1.5,6.5-3.1,9.9-4.8c36-17.8,44.7-27,66.3-44.4c51.1-41.1,73,6.2,38.1,27.2C26,62.1,0.4,38.5-46.9,66.8
						c7.4-0.4,14.8-0.7,22.3-0.9c30-0.9,60-0.5,90.1,2.1c7.5,0.7,15,1.4,22.5,2.5c7.5,1,15,2.2,22.5,3.8c7.5,1.6,15,3.4,22.5,6.1
						c3.8,1.4,7.5,2.9,11.3,5.2c1.9,1.2,3.8,2.5,5.8,4.5c0.9,1,1.9,2.2,2.7,3.8c0.8,1.5,1.4,3.5,1.4,5.6c0,2.1-0.6,4-1.4,5.6
						C151.9,106.5,150.9,107.7,150,108.7"/>
				</g>
			</g>
		</g>
	</g>
</g>
</svg>
